<svg xmlns="http://www.w3.org/2000/svg" width="121.02" height="133.531" viewBox="0 0 121.02 133.531"><g transform="translate(-248 -110)"><g transform="translate(255.628 219.406)"><g transform="translate(0)"><path d="M268.918,410.436h2.525v14.8h-2.525Zm1.2,6.322h4.958v2.372h-4.958Zm3.319-6.322h2.525v14.8h-2.525Z" transform="translate(-268.918 -410.283)" fill="#01478b"/><path d="M306.388,424.713a2.928,2.928,0,0,1-1.3-1.191,3.712,3.712,0,0,1-.448-1.878V413.5a3.742,3.742,0,0,1,.448-1.883,2.9,2.9,0,0,1,1.3-1.191,5.322,5.322,0,0,1,4.082,0,2.9,2.9,0,0,1,1.3,1.191,3.739,3.739,0,0,1,.448,1.883v8.145a3.709,3.709,0,0,1-.448,1.878,2.927,2.927,0,0,1-1.3,1.191,5.257,5.257,0,0,1-4.082,0Zm2.708-2.265a.993.993,0,0,0,.423-.438,1.533,1.533,0,0,0,.143-.692V413.8a1.51,1.51,0,0,0-.143-.682,1,1,0,0,0-.423-.438,1.373,1.373,0,0,0-.667-.153,1.345,1.345,0,0,0-.662.153,1,1,0,0,0-.417.438,1.505,1.505,0,0,0-.143.682v7.514a1.528,1.528,0,0,0,.143.692,1,1,0,0,0,.417.438,1.341,1.341,0,0,0,.662.153A1.368,1.368,0,0,0,309.1,422.447Z" transform="translate(-291.615 -410.017)" fill="#01478b"/><path d="M348.651,410.436h2.362v14.8h-2.25V414.9l.153.652-2.148,7.065h-1.262l-2.148-6.862.2-.855v10.333h-2.3v-14.8h2.423l2.453,8.042Z" transform="translate(-314.879 -410.283)" fill="#01478b"/><path d="M384.411,410.436h2.525v14.8h-2.525Zm1.12,0h5.457V412.9h-5.457Zm0,6.22h4.948v2.454h-4.948Zm0,6.119h5.457v2.464h-5.457Z" transform="translate(-342.295 -410.283)" fill="#01478b"/><path d="M442.786,410.436h1.955l1.6,10.272.744-10.272h2.565l-1.894,14.8h-2.423l-1.507-9.57-1.619,9.57h-2.423l-1.9-14.8h2.566l.743,10.272Z" transform="translate(-376.265 -410.283)" fill="#01478b"/><path d="M485.233,424.713a2.931,2.931,0,0,1-1.3-1.191,3.709,3.709,0,0,1-.448-1.878V413.5a3.739,3.739,0,0,1,.448-1.883,2.9,2.9,0,0,1,1.3-1.191,5.323,5.323,0,0,1,4.082,0,2.9,2.9,0,0,1,1.3,1.191,3.739,3.739,0,0,1,.448,1.883v8.145a3.709,3.709,0,0,1-.448,1.878,2.931,2.931,0,0,1-1.3,1.191,5.258,5.258,0,0,1-4.082,0Zm2.708-2.265a.993.993,0,0,0,.422-.438,1.538,1.538,0,0,0,.142-.692V413.8a1.515,1.515,0,0,0-.142-.682,1,1,0,0,0-.422-.438,1.377,1.377,0,0,0-.667-.153,1.344,1.344,0,0,0-.661.153,1,1,0,0,0-.418.438,1.515,1.515,0,0,0-.142.682v7.514a1.538,1.538,0,0,0,.142.692,1,1,0,0,0,.418.438,1.34,1.34,0,0,0,.661.153A1.373,1.373,0,0,0,487.941,422.447Z" transform="translate(-405.241 -410.017)" fill="#01478b"/><path d="M520.1,410.407h2.474V425.22H520.1Zm1.13,6.129H523.9a1.272,1.272,0,0,0,.565-.117.806.806,0,0,0,.361-.336,1.059,1.059,0,0,0,.122-.524v-1.649a1.279,1.279,0,0,0-.122-.58.835.835,0,0,0-.361-.372,1.188,1.188,0,0,0-.565-.127h-2.668v-2.423h2.515a4.878,4.878,0,0,1,2.052.392,2.852,2.852,0,0,1,1.3,1.151,3.514,3.514,0,0,1,.447,1.817V415.5a3.689,3.689,0,0,1-.447,1.868,2.9,2.9,0,0,1-1.3,1.186,4.723,4.723,0,0,1-2.046.407h-2.515Zm2.056,1.965,2.311-.469,2.362,7.188h-2.708Z" transform="translate(-428.505 -410.265)" fill="#01478b"/><path d="M557.364,410.436h2.525v14.8h-2.525Zm2.006,7.961,2.881-7.961h2.85l-5.731,12.451Zm.927-1.242,1.731-1.517,3.543,9.6H562.8Z" transform="translate(-452.178 -410.283)" fill="#01478b"/></g><g transform="translate(10.883 18.894)"><path d="M298.762,461.829h.727v5.178h-.727Zm.453,2.283h2.874v.691h-2.874Zm2.489-2.283h.726v5.178H301.7Z" transform="translate(-298.762 -461.829)" fill="#383838"/><path d="M326.55,469.36a1.242,1.242,0,0,1-.522-.55,1.942,1.942,0,0,1-.18-.87v-.6a1.9,1.9,0,0,1,.18-.86,1.24,1.24,0,0,1,.522-.545,1.9,1.9,0,0,1,1.645,0,1.237,1.237,0,0,1,.521.545,1.9,1.9,0,0,1,.18.86v.613a1.9,1.9,0,0,1-.18.864,1.244,1.244,0,0,1-.521.547,1.886,1.886,0,0,1-1.645,0Zm1.412-.741a.985.985,0,0,0,.208-.669v-.613a.971.971,0,0,0-.208-.666.857.857,0,0,0-1.179,0,.971.971,0,0,0-.209.666v.613a.986.986,0,0,0,.209.669.847.847,0,0,0,1.179,0Z" transform="translate(-315.971 -464.317)" fill="#383838"/><path d="M351.04,465.8h.726v3.7h-.726Zm2.208,1.456a.873.873,0,0,0-.192-.605.7.7,0,0,0-.545-.214.758.758,0,0,0-.55.189.705.705,0,0,0-.194.531l-.075-.712a1.319,1.319,0,0,1,.447-.516,1.088,1.088,0,0,1,.611-.182,1.2,1.2,0,0,1,.663.177,1.106,1.106,0,0,1,.418.515,2.072,2.072,0,0,1,.144.815v2.243h-.727Zm2.208,0a.843.843,0,0,0-.2-.605.747.747,0,0,0-.57-.214.667.667,0,0,0-.524.206.846.846,0,0,0-.185.584l-.146-.713a1.422,1.422,0,0,1,.461-.568,1.076,1.076,0,0,1,.632-.2,1.262,1.262,0,0,1,.682.177,1.106,1.106,0,0,1,.431.515,2.031,2.031,0,0,1,.148.815v2.243h-.726Z" transform="translate(-331.976 -464.317)" fill="#383838"/><path d="M382.62,469.356a1.284,1.284,0,0,1-.554-.564,1.955,1.955,0,0,1-.19-.9v-.417a2.174,2.174,0,0,1,.183-.936,1.308,1.308,0,0,1,.532-.591,1.644,1.644,0,0,1,.84-.2,1.336,1.336,0,0,1,.791.232,1.438,1.438,0,0,1,.5.67,2.863,2.863,0,0,1,.173,1.051v.242H382.4v-.584h1.8a1.245,1.245,0,0,0-.233-.7.656.656,0,0,0-.54-.251.787.787,0,0,0-.639.271,1.163,1.163,0,0,0-.226.766v.47a.961.961,0,0,0,.242.7.921.921,0,0,0,.687.246,1.144,1.144,0,0,0,.438-.089,1.267,1.267,0,0,0,.388-.249l.477.477a2,2,0,0,1-.616.408,1.754,1.754,0,0,1-.687.144A1.848,1.848,0,0,1,382.62,469.356Z" transform="translate(-351.567 -464.317)" fill="#383838"/><path d="M424.505,461.829h3.654v.691h-3.654Zm1.463.424h.726v4.754h-.726Z" transform="translate(-378.651 -461.829)" fill="#383838"/><path d="M449.836,468.139a.846.846,0,0,0,.2.6.724.724,0,0,0,.557.212.764.764,0,0,0,.552-.189.711.711,0,0,0,.2-.538l.05.773a1.065,1.065,0,0,1-.371.459,1.046,1.046,0,0,1-.63.185,1.17,1.17,0,0,1-.946-.393,1.67,1.67,0,0,1-.333-1.109v-2.247h.726Zm1.5-2.247h.723v3.7h-.723Z" transform="translate(-394.283 -464.41)" fill="#383838"/><path d="M473.452,464.018h1.667v.655h-1.667Zm.589,3.467a1.111,1.111,0,0,1-.208-.732v-3.811h.726v3.818a.35.35,0,0,0,.053.208.182.182,0,0,0,.157.073h.349v.691h-.42A.811.811,0,0,1,474.041,467.484Z" transform="translate(-409.749 -462.536)" fill="#383838"/><path d="M495.165,469.36a1.241,1.241,0,0,1-.521-.55,1.936,1.936,0,0,1-.18-.87v-.6a1.9,1.9,0,0,1,.18-.86,1.24,1.24,0,0,1,.521-.545,1.9,1.9,0,0,1,1.645,0,1.24,1.24,0,0,1,.522.545,1.9,1.9,0,0,1,.18.86v.613a1.9,1.9,0,0,1-.18.864,1.247,1.247,0,0,1-.522.547,1.886,1.886,0,0,1-1.645,0Zm1.412-.741a.985.985,0,0,0,.209-.669v-.613a.971.971,0,0,0-.209-.666.857.857,0,0,0-1.179,0,.971.971,0,0,0-.208.666v.613a.985.985,0,0,0,.208.669.847.847,0,0,0,1.179,0Z" transform="translate(-423.098 -464.317)" fill="#383838"/><path d="M519.655,465.8h.726v3.7h-.726Zm1.791.7a.876.876,0,0,0-.338-.061.723.723,0,0,0-.536.19.714.714,0,0,0-.191.529l-.075-.712a1.359,1.359,0,0,1,.442-.515,1.045,1.045,0,0,1,.6-.183,1.359,1.359,0,0,1,.457.073,1.025,1.025,0,0,1,.358.216l-.474.641A.606.606,0,0,0,521.446,466.5Z" transform="translate(-439.103 -464.317)" fill="#383838"/><path d="M542.355,469.484a2.233,2.233,0,0,1-.536-.192,2.114,2.114,0,0,1-.459-.321l.431-.531a2.424,2.424,0,0,0,.594.342,1.621,1.621,0,0,0,.584.114,1.245,1.245,0,0,0,.647-.134.44.44,0,0,0,.215-.4.315.315,0,0,0-.117-.267.663.663,0,0,0-.292-.119q-.174-.03-.491-.055l-.06,0-.06-.005h-.029l-.028,0a2.9,2.9,0,0,1-.609-.105.825.825,0,0,1-.415-.287.952.952,0,0,1-.166-.6,1.221,1.221,0,0,1,.16-.652.973.973,0,0,1,.477-.39,2.1,2.1,0,0,1,.794-.13,2.733,2.733,0,0,1,.55.054,2.44,2.44,0,0,1,.5.158,2.493,2.493,0,0,1,.459.265l-.438.531a2.457,2.457,0,0,0-.547-.267,1.662,1.662,0,0,0-.526-.089.989.989,0,0,0-.555.127.428.428,0,0,0-.185.379.258.258,0,0,0,.1.224.617.617,0,0,0,.266.1q.16.025.456.043a.252.252,0,0,0,.045,0,.376.376,0,0,1,.048,0h.021a.062.062,0,0,1,.021,0,3.16,3.16,0,0,1,.66.1.894.894,0,0,1,.458.31,1.05,1.05,0,0,1,.185.67,1.182,1.182,0,0,1-.171.66,1.031,1.031,0,0,1-.515.393,2.424,2.424,0,0,1-.864.132A2.819,2.819,0,0,1,542.355,469.484Z" transform="translate(-452.893 -464.317)" fill="#383838"/></g></g><g transform="translate(248 110)"><path d="M328,208.826V241.67a5.471,5.471,0,0,0,2.735,4.737l28.444,16.422a5.471,5.471,0,0,0,5.47,0l28.444-16.422a5.471,5.471,0,0,0,2.735-4.737V208.826a5.471,5.471,0,0,0-2.735-4.737l-28.444-16.422a5.471,5.471,0,0,0-5.47,0l-28.444,16.422A5.471,5.471,0,0,0,328,208.826Z" transform="translate(-298.827 -158.879)" fill="#01478b"/><path d="M342,222.044v26.949a5.471,5.471,0,0,0,2.735,4.737L368.074,267.2a5.469,5.469,0,0,0,5.47,0l23.339-13.474a5.471,5.471,0,0,0,2.735-4.737V222.044a5.471,5.471,0,0,0-2.735-4.737l-23.339-13.474a5.469,5.469,0,0,0-5.47,0l-23.339,13.474A5.471,5.471,0,0,0,342,222.044Z" transform="translate(-307.722 -169.149)" fill="#0061b2"/><path d="M352.768,170.251A68.922,68.922,0,0,0,311.58,195.9l-9.187-14.753A39.1,39.1,0,0,1,343.581,155.5Z" transform="translate(-282.558 -138.77)" fill="#2d2d2d"/><path d="M267.084,152.544,248,157.528l25.77-39.141L320.69,110l-9.724,15.681c-2.564-.411-19.208-2.8-32.455,8.752A38.306,38.306,0,0,0,267.084,152.544Z" transform="translate(-248 -110)" fill="#383838"/><g transform="translate(45.978 45.101)"><path d="M377.931,277.911V254.886l.746-.368a.364.364,0,0,0,.186-.44l-.832-2.555a.365.365,0,0,0-.517-.21l-2.1,1.1a1.924,1.924,0,0,0-1.335,1.832V279.66a2.007,2.007,0,0,0,.456,1.308,1.909,1.909,0,0,0,1.5.68,9.388,9.388,0,0,1,6.12,2.115.364.364,0,0,0,.506-.038l2.056-2.347a.366.366,0,0,0-.038-.521,13.232,13.232,0,0,0-6.755-2.948Z" transform="translate(-374.084 -244.856)" fill="#fff"/><path d="M448.531,252.663l-2.048-.97a.365.365,0,0,0-.493.189L445,254.256a.364.364,0,0,0,.166.462l.85.449v22.989a13.235,13.235,0,0,0-6.755,2.948.366.366,0,0,0-.038.522l2.056,2.346a.364.364,0,0,0,.506.038,9.386,9.386,0,0,1,6.12-2.115,1.923,1.923,0,0,0,1.646-.87,1.988,1.988,0,0,0,.312-1.105V254.5A1.924,1.924,0,0,0,448.531,252.663Z" transform="translate(-415.413 -245.102)" fill="#fff"/><path d="M411.551,264.141a1.932,1.932,0,0,0,1.963-1.305,1.858,1.858,0,0,0,.1-.616V246.941a.365.365,0,0,0-.365-.365h-3.118a.365.365,0,0,0-.365.365v13.374a13.3,13.3,0,0,0-2.938.587q-.6.191-1.166.434V238.1l.852.347a.365.365,0,0,0,.476-.2l.942-2.354a.365.365,0,0,0-.181-.464l-3.351-1.608a1.925,1.925,0,0,0-1.461.014l-3.181,1.584a.365.365,0,0,0-.174.468l.953,2.263a.365.365,0,0,0,.488.19l.791-.361v23.4a13.37,13.37,0,0,0-4.189-1.058V246.941a.365.365,0,0,0-.365-.365h-3.118a.365.365,0,0,0-.365.365v15.281a1.842,1.842,0,0,0,.1.615,1.934,1.934,0,0,0,1.9,1.307,11.74,11.74,0,0,1,1.4-.016,9.577,9.577,0,0,1,5.344,2.144,1.916,1.916,0,0,0,2.72-.282,9.446,9.446,0,0,1,6.317-1.849Z" transform="translate(-386.596 -233.678)" fill="#fff"/><rect width="2.736" height="3.847" rx="1.368" transform="translate(4.13 19.695)" fill="#fc0"/><rect width="2.821" height="3.847" rx="1.411" transform="translate(27.383 19.717) rotate(-0.437)" fill="#fc0"/><rect width="3.056" height="3.847" rx="1.528" transform="translate(34.838 14.117)" fill="#fc0"/></g></g></g></svg>