<svg xmlns="http://www.w3.org/2000/svg" xmlns:xlink="http://www.w3.org/1999/xlink" width="65" height="96" viewBox="0 0 65 96"><defs><clipPath id="a"><rect width="65" height="96" fill="none"/></clipPath></defs><g clip-path="url(#a)"><g transform="translate(1580 1128)"><circle cx="2.5" cy="2.5" r="2.5" transform="translate(-1580 -1128)" fill="#868bce"/></g><g transform="translate(1604 1128)"><circle cx="2.5" cy="2.5" r="2.5" transform="translate(-1580 -1128)" fill="#868bce"/></g><g transform="translate(1628 1128)"><circle cx="2.5" cy="2.5" r="2.5" transform="translate(-1580 -1128)" fill="#868bce"/></g><g transform="translate(1580 1152)"><circle cx="2.5" cy="2.5" r="2.5" transform="translate(-1580 -1128)" fill="#868bce"/></g><g transform="translate(1604 1152)"><circle cx="2.5" cy="2.5" r="2.5" transform="translate(-1580 -1128)" fill="#868bce"/></g><g transform="translate(1628 1152)"><circle cx="2.5" cy="2.5" r="2.5" transform="translate(-1580 -1128)" fill="#868bce"/></g><g transform="translate(1580 1176)"><circle cx="2.5" cy="2.5" r="2.5" transform="translate(-1580 -1128)" fill="#868bce"/></g><g transform="translate(1604 1176)"><circle cx="2.5" cy="2.5" r="2.5" transform="translate(-1580 -1128)" fill="#868bce"/></g><g transform="translate(1628 1176)"><circle cx="2.5" cy="2.5" r="2.5" transform="translate(-1580 -1128)" fill="#868bce"/></g><g transform="translate(1580 1200)"><circle cx="2.5" cy="2.5" r="2.5" transform="translate(-1580 -1128)" fill="#868bce"/></g><g transform="translate(1604 1200)"><circle cx="2.5" cy="2.5" r="2.5" transform="translate(-1580 -1128)" fill="#868bce"/></g><g transform="translate(1628 1200)"><circle cx="2.5" cy="2.5" r="2.5" transform="translate(-1580 -1128)" fill="#868bce"/></g></g></svg>