<svg xmlns="http://www.w3.org/2000/svg" xmlns:xlink="http://www.w3.org/1999/xlink" width="173" height="173" viewBox="0 0 173 173"><defs><clipPath id="a"><circle cx="86.5" cy="86.5" r="86.5" fill="#fff"/></clipPath><clipPath id="b"><rect width="76" height="139" fill="none"/></clipPath></defs><g clip-path="url(#a)"><g transform="translate(6 12)" clip-path="url(#b)"><g transform="translate(2567 510)"><circle cx="4" cy="4" r="4" transform="translate(-2567 -510)" fill="#312ff2"/></g><g transform="translate(2599 510)"><circle cx="4" cy="4" r="4" transform="translate(-2567 -510)" fill="#312ff2"/></g><g transform="translate(2631 510)"><circle cx="4" cy="4" r="4" transform="translate(-2567 -510)" fill="#312ff2"/></g><g transform="translate(2567 542)"><circle cx="4" cy="4" r="4" transform="translate(-2567 -510)" fill="#312ff2"/></g><g transform="translate(2599 542)"><circle cx="4" cy="4" r="4" transform="translate(-2567 -510)" fill="#312ff2"/></g><g transform="translate(2631 542)"><circle cx="4" cy="4" r="4" transform="translate(-2567 -510)" fill="#312ff2"/></g><g transform="translate(2567 574)"><circle cx="4" cy="4" r="4" transform="translate(-2567 -510)" fill="#312ff2"/></g><g transform="translate(2599 574)"><circle cx="4" cy="4" r="4" transform="translate(-2567 -510)" fill="#312ff2"/></g><g transform="translate(2631 574)"><circle cx="4" cy="4" r="4" transform="translate(-2567 -510)" fill="#312ff2"/></g><g transform="translate(2567 606)"><circle cx="4" cy="4" r="4" transform="translate(-2567 -510)" fill="#312ff2"/></g><g transform="translate(2599 606)"><circle cx="4" cy="4" r="4" transform="translate(-2567 -510)" fill="#312ff2"/></g><g transform="translate(2631 606)"><circle cx="4" cy="4" r="4" transform="translate(-2567 -510)" fill="#312ff2"/></g><g transform="translate(2567 638)"><circle cx="4" cy="4" r="4" transform="translate(-2567 -510)" fill="#312ff2"/></g><g transform="translate(2599 638)"><circle cx="4" cy="4" r="4" transform="translate(-2567 -510)" fill="#312ff2"/></g><g transform="translate(2631 638)"><circle cx="4" cy="4" r="4" transform="translate(-2567 -510)" fill="#312ff2"/></g></g></g></svg>